<svg width="234" height="167" viewBox="0 0 234 167" fill="none" xmlns="http://www.w3.org/2000/svg">
<path fill-rule="evenodd" clip-rule="evenodd" d="M145.84 0C158.203 1.3412e-05 168.421 9.85779 168.737 22.136L168.752 23.309C169.063 35.5873 179.122 45.4451 191.485 45.4451H201.372C219.392 45.4451 234 60.2052 234 78.2106C234 96.398 219.245 111.308 201.043 111.308H168.332C168.309 111.308 168.291 111.325 168.289 111.347C168.287 111.37 168.289 111.387 168.267 111.387C167.397 111.375 136.384 110.979 113.193 113.751C103.037 114.965 91.7454 116.022 81.9903 116.844C68.87 117.949 58.6653 128.838 58.6651 141.994C58.6651 155.804 47.4606 167 33.6395 167H29.333C13.1332 167 0.000218182 153.878 0 137.691C0 121.504 13.133 108.382 29.333 108.382H57.387C57.4669 108.378 84.8563 107.089 108.761 104.142C120.952 102.639 136.623 99.2086 149.069 96.2033C160.33 93.4841 168.085 83.3073 168.085 71.7317V68.8259C168.085 56.4727 158.219 46.4217 145.931 46.1106L144.757 46.0961C132.469 45.7801 122.603 35.5703 122.603 23.2171C122.603 10.4861 133.099 0 145.84 0ZM29.3322 127.382C24.0536 127.382 19.7744 131.658 19.7744 136.932C19.7744 142.207 24.0536 146.482 29.3322 146.482C34.6107 146.482 38.8899 142.207 38.8899 136.932C38.8899 131.658 34.6107 127.382 29.3322 127.382ZM200.712 68.4951C195.433 68.4953 191.155 72.771 191.155 78.0453C191.155 83.3195 195.433 87.5952 200.712 87.5954C205.99 87.5954 210.269 83.3196 210.269 78.0453C210.269 72.7709 205.99 68.4951 200.712 68.4951ZM145.342 13.8291C140.064 13.8293 135.785 18.105 135.785 23.3792C135.785 28.6534 140.064 32.9291 145.342 32.9294C150.621 32.9294 154.9 28.6536 154.9 23.3792C154.9 18.1048 150.621 13.8291 145.342 13.8291Z" fill="white"/>
</svg>
