<svg width="261" height="185" viewBox="0 0 261 185" fill="none" xmlns="http://www.w3.org/2000/svg">
<path d="M25.8085 177.223C25.8085 177.223 26.0797 184.184 33.9324 184.184C41.7851 184.184 41.7851 177.223 41.7851 177.223V91.9736C41.7851 88.6663 44.3078 85.9049 47.6016 85.6067L59.2001 84.5564C62.709 84.2387 65.2995 81.1419 64.9923 77.632L60.8666 30.4967C60.7409 29.0606 60.1336 27.7092 59.1432 26.6617L38.474 4.80298C35.9907 2.17672 31.8257 2.12979 29.2838 4.69943L7.53259 26.6883C6.51378 27.7182 5.87499 29.0637 5.72088 30.5042L0.696126 77.4744C0.314328 81.0434 2.94482 84.2272 6.52173 84.5254L19.9466 85.6446C23.26 85.9209 25.8085 88.6907 25.8085 92.0155V177.223Z" fill="white"/>
<path d="M138.026 48.0734V175.647C138.026 175.647 138.026 183.914 130.774 183.914C123.523 183.914 123.523 175.647 123.523 175.647V47.3684C123.523 43.9853 120.887 41.188 117.51 40.9867L83.7795 38.9763C83.2491 38.9447 82.7388 38.7618 82.3091 38.4492C80.3312 37.0108 81.0393 33.9034 83.4452 33.4639L108.879 28.8179C110.541 28.5142 112.015 27.565 112.979 26.1777L120.287 15.6639C122.133 13.0075 125.673 12.1491 128.531 13.6645L159.825 30.2571C165.869 33.4617 163.335 42.6393 156.503 42.2899L144.745 41.6887C141.091 41.5018 138.026 44.4143 138.026 48.0734Z" fill="white"/>
<path d="M230.733 55.3238V176.105C230.733 176.105 230.733 183.987 223.482 183.987C216.23 183.987 216.23 176.105 216.23 176.105V55.0761C216.23 53.6211 215.734 52.2097 214.823 51.0749L200.376 33.071C200.138 32.775 199.927 32.4584 199.746 32.125L196.432 26.0345C195.036 23.4684 195.557 20.2824 197.698 18.2946L208.122 8.61539C208.75 8.03152 209.577 7.70703 210.435 7.70703C213.51 7.70703 215.005 11.4643 212.77 13.5767L207.08 18.957C205.356 20.5862 204.842 23.122 205.794 25.294L205.928 25.5988C206.742 27.4563 208.578 28.6561 210.606 28.6561H212.734C215.172 28.6561 216.894 26.269 216.125 23.956C215.666 22.5759 216.089 21.0554 217.195 20.1112L230.802 8.49698C231.4 7.98713 232.159 7.70703 232.945 7.70703C236.045 7.70703 237.434 11.5963 235.035 13.5603L227.843 19.4467C226.2 20.7914 225.541 23.0007 226.18 25.0255L226.324 25.4815C226.919 27.3711 228.672 28.6561 230.653 28.6561H233.274C235.682 28.6561 237.157 26.0142 235.893 23.9642C235.084 22.6524 235.37 20.9444 236.563 19.9682L250.724 8.37723C251.254 7.94383 251.917 7.70703 252.601 7.70703C255.386 7.70703 256.633 11.1998 254.478 12.9635L247.631 18.5674C245.414 20.3826 244.752 23.4935 246.039 26.0543L247.356 28.676C248.551 31.0529 248.148 33.9211 246.346 35.8778L232.424 50.9925C231.337 52.1729 230.733 53.719 230.733 55.3238Z" fill="white"/>
</svg>
