<svg width="9" height="11" viewBox="0 0 9 11" fill="none" xmlns="http://www.w3.org/2000/svg">
<path d="M4.14178 0C6.32095 4.67859e-06 8.17618 1.67443 8.25625 3.88741C8.27207 4.32474 8.28219 4.76058 8.28223 5.16117C8.28226 5.56828 8.2719 6.01258 8.25569 6.45834C8.17519 8.67074 6.32089 10.3457 4.14173 10.3457C1.95934 10.3457 0.104241 8.66608 0.0258179 6.45105C0.0101202 6.00767 6.60003e-05 5.56599 9.82592e-05 5.16117C0.000130074 4.76289 0.00988887 4.32968 0.0252018 3.89475C0.103211 1.67912 1.95935 0 4.14178 0ZM4.14178 1.14614C2.5418 1.14614 1.22576 2.37062 1.17067 3.93505C1.15566 4.36139 1.14627 4.78048 1.14624 5.16128C1.14621 5.54835 1.15585 5.97569 1.17124 6.4105C1.22663 7.97496 2.54226 9.1995 4.14173 9.19951C5.7391 9.19951 7.05345 7.97829 7.11026 6.41666C7.12616 5.97969 7.13612 5.55013 7.13609 5.16128C7.13606 4.77868 7.12633 4.35736 7.11083 3.92884C7.05432 2.36728 5.73962 1.14614 4.14178 1.14614Z" fill="black"/>
<path d="M4.76727 7.97034C3.9953 7.97034 3.3695 7.34454 3.3695 6.57257C3.3695 5.80061 3.9953 5.1748 4.76727 5.1748C5.53924 5.1748 6.16504 5.80061 6.16504 6.57257C6.16504 7.34454 5.53924 7.97034 4.76727 7.97034Z" fill="black"/>
<path d="M3.07237 4.62723C2.56302 4.62723 2.15011 4.21432 2.15011 3.70497C2.15011 3.19562 2.56302 2.78271 3.07237 2.78271C3.58172 2.78271 3.99463 3.19562 3.99463 3.70497C3.99463 4.21432 3.58172 4.62723 3.07237 4.62723Z" fill="black"/>
</svg>
