<svg width="50" height="23" viewBox="0 0 50 23" fill="none" xmlns="http://www.w3.org/2000/svg">
<path d="M17.6328 0C18.5769 0 19.4941 0.116495 20.3721 0.331055C17.5828 3.22596 15.8672 7.16244 15.8672 11.5C15.8672 15.8373 17.5831 19.7731 20.3721 22.668C19.494 22.8826 18.577 23 17.6328 23H11.5C5.14881 23 0 17.8512 0 11.5C0.000161952 5.14895 5.14891 0 11.5 0H17.6328ZM24.7969 2.50781C26.2018 3.62848 27.3381 5.07103 28.0947 6.72363C26.1659 7.48017 24.7998 9.35757 24.7998 11.5547C24.7999 13.7352 26.1459 15.5997 28.0518 16.3672C27.2958 17.9807 26.1775 19.3905 24.7998 20.4902C22.3037 18.4981 20.6538 15.4908 20.4814 12.0918L20.4668 11.5C20.4668 7.86019 22.1576 4.6151 24.7969 2.50781Z" fill="black"/>
<path d="M38.0995 0C44.4507 0 49.5995 5.14881 49.5995 11.5C49.5994 17.8511 44.4506 23 38.0995 23H31.9667C25.6155 23 20.4668 17.8511 20.4667 11.5C20.4667 5.14881 25.6155 0 31.9667 0H38.0995ZM41.3876 11.5039C39.4402 11.5039 37.8612 13.0829 37.8612 15.0303C37.8614 16.9775 39.4403 18.5557 41.3876 18.5557C43.3347 18.5555 44.9128 16.9774 44.913 15.0303C44.913 13.083 43.3348 11.5041 41.3876 11.5039ZM30.2548 6.36621C27.3895 6.36641 25.0673 8.68943 25.0673 11.5547C25.0674 14.4199 27.3896 16.743 30.2548 16.7432C33.1201 16.7432 35.4431 14.42 35.4432 11.5547C35.4432 8.68931 33.1201 6.36621 30.2548 6.36621ZM40.203 4.04883C38.9373 4.04884 37.9111 5.07511 37.911 6.34082C37.911 7.60658 38.9372 8.6328 40.203 8.63281C41.4688 8.63281 42.495 7.60659 42.495 6.34082C42.4949 5.0751 41.4687 4.04883 40.203 4.04883Z" fill="black"/>
</svg>
