<svg width="1004" height="92" viewBox="0 0 1004 92" fill="none" xmlns="http://www.w3.org/2000/svg">
<path d="M1004 66.0956C1004 76.2902 998.395 83.2095 987.186 86.8537C983.772 87.9608 979.759 88.7681 975.146 89.2755C972.609 89.5523 970.395 89.6907 968.503 89.6907H899.863C896.081 89.6907 894.189 87.7763 894.189 83.9476V6.65826C894.189 2.87567 896.081 0.984375 899.863 0.984375H966.497C974.016 0.984375 979.736 1.4226 983.657 2.29905C989.238 3.54454 993.898 5.92019 997.634 9.426C1001.88 13.347 1004 17.983 1004 23.3339V30.1841C1004 35.5351 1002.11 39.9865 998.326 43.5385C997.772 44.0459 997.496 44.6225 997.496 45.2683C997.496 45.6835 997.634 46.1448 997.911 46.6522L998.326 47.2749C1002.11 50.7808 1004 55.2091 1004 60.5601V66.0956ZM988.224 30.876V23.3339C987.901 17.1988 980.497 14.2004 966.843 14.2004H910.727V39.1101H967.466C977.476 39.1101 983.957 37.4956 986.909 34.2665C987.832 33.2517 988.27 32.1215 988.224 30.876ZM987.808 60.8369C987.901 55.2091 981.212 52.3953 967.742 52.3953H910.381V76.4055H966.635C979.136 76.4055 986.148 73.6147 987.67 68.033L987.808 60.8369Z" fill="white"/>
<path d="M880.005 81.4553C880.143 82.1473 880.213 82.8623 880.213 83.6003C880.213 85.9991 879.405 87.9365 877.791 89.4126C876.176 90.8887 874.147 91.6268 871.702 91.6268C869.165 91.6268 866.881 90.1507 864.852 87.1984L850.529 66.3019H782.304L767.981 87.1984C767.519 88.0749 767.081 88.6976 766.666 89.0666C765.651 90.0353 764.429 90.5197 762.999 90.5197C759.908 90.5197 757.624 89.4126 756.148 87.1984C755.503 86.2297 755.18 85.3071 755.18 84.4307C755.18 83.831 755.272 83.3466 755.456 82.9776L806.591 4.78874C808.805 1.42132 812.103 -0.170139 816.485 0.0143779C821.698 0.198894 824.812 1.79035 825.826 4.78874L880.005 81.4553ZM841.049 52.9475L816.485 16.7592L791.783 52.9475H841.049Z" fill="white"/>
<path d="M748.053 83.9476C748.053 87.7763 746.138 89.6907 742.31 89.6907H691.522C681.373 89.6907 674.592 89.3447 671.179 88.6527C655.31 85.4237 647.376 77.9969 647.376 66.3724V6.65826C647.376 2.87567 649.267 0.984375 653.05 0.984375H657.824C661.653 0.984375 663.567 2.87567 663.567 6.65826V66.3724C663.567 71.1237 667.327 74.1913 674.846 75.5751C677.844 76.1287 683.357 76.4055 691.383 76.4055H742.31C746.138 76.4055 748.053 78.3198 748.053 82.1485V83.9476Z" fill="white"/>
<path d="M520.702 46.2153C520.702 23.082 538.477 3.38746 561.97 2.53748C566.612 2.36951 571.239 2.26206 575.491 2.26172C579.813 2.26137 584.53 2.37133 589.262 2.54347C612.748 3.39795 630.529 23.0826 630.529 46.2159C630.529 69.3833 612.698 89.0765 589.184 89.909C584.478 90.0756 579.789 90.1824 575.491 90.182C571.263 90.1817 566.665 90.0781 562.048 89.9155C538.527 89.0874 520.702 69.3833 520.702 46.2153ZM532.869 46.2153C532.869 63.2001 545.868 77.1708 562.475 77.7556C567.001 77.9149 571.45 78.0146 575.493 78.015C579.602 78.0153 584.138 77.913 588.754 77.7496C605.362 77.1616 618.361 63.1953 618.361 46.2159C618.361 29.2587 605.397 15.306 588.819 14.7029C584.181 14.5341 579.62 14.4284 575.493 14.4288C571.431 14.4291 566.958 14.5323 562.409 14.6969C545.832 15.2967 532.869 29.2531 532.869 46.2153Z" fill="white"/>
<path d="M605.311 39.5824C605.311 47.7773 598.668 54.4206 590.473 54.4206C582.278 54.4206 575.635 47.7773 575.635 39.5824C575.635 31.3875 582.278 24.7441 590.473 24.7441C598.668 24.7441 605.311 31.3875 605.311 39.5824Z" fill="white"/>
<path d="M569.834 57.5736C569.834 62.9807 565.451 67.364 560.044 67.364C554.637 67.364 550.253 62.9807 550.253 57.5736C550.253 52.1665 554.637 47.7832 560.044 47.7832C565.451 47.7832 569.834 52.1665 569.834 57.5736Z" fill="white"/>
<path d="M502.277 83.9459C502.277 87.7746 500.386 89.689 496.603 89.689H491.76C487.977 89.689 486.086 87.7746 486.086 83.9459V26.5844L438.411 85.399C435.874 88.5358 432.461 90.1041 428.171 90.1041C423.835 90.1041 420.375 88.5358 417.792 85.399L369.218 26.3076V83.9459C369.218 87.7746 367.303 89.689 363.475 89.689H358.7C354.918 89.689 353.026 87.7746 353.026 83.9459V9.49353C353.026 7.04869 354.018 5.019 356.002 3.40448C357.847 1.88222 360.038 1.12109 362.575 1.12109C366.035 1.12109 369.01 2.59723 371.501 5.54949L428.309 72.7365L483.802 5.4111C486.063 2.68948 489.246 1.32867 493.351 1.32867C499.302 1.32867 502.277 4.28094 502.277 10.1855V83.9459Z" fill="white"/>
<path d="M334.966 67.7563C334.966 77.6279 330.446 83.9937 321.404 86.8537C315.408 88.745 306.989 89.6907 296.149 89.6907H240.171C236.388 89.6907 234.497 87.7763 234.497 83.9476V82.1485C234.497 78.3198 236.388 76.4055 240.171 76.4055H296.149C311.233 76.4055 318.775 73.6147 318.775 68.033V60.3525C318.775 54.4019 311.302 51.4266 296.356 51.4266H274.975C247.851 51.4266 234.29 44.3688 234.29 30.2533V23.6107C234.29 14.2004 238.764 7.76535 247.713 4.30567C253.433 2.09147 261.99 0.984375 273.384 0.984375H281.618C285.447 0.984375 287.361 2.87567 287.361 6.65826V8.45729C287.361 12.286 285.447 14.2004 281.618 14.2004H273.176C258.046 14.2004 250.481 17.291 250.481 23.4723V29.6306C250.481 33.5054 253.825 36.0194 260.514 37.1727C263.189 37.634 267.918 37.8646 274.699 37.8646H296.356C305.997 37.8646 314.162 39.2023 320.851 41.8778C330.261 45.6604 334.966 51.6341 334.966 59.799V67.7563Z" fill="white"/>
<path d="M108.314 46.2153C108.315 23.082 126.09 3.38746 149.582 2.53748C154.224 2.36951 158.851 2.26206 163.104 2.26172C167.425 2.26137 172.142 2.37133 176.874 2.54347C200.36 3.39795 218.141 23.0826 218.141 46.2159C218.141 69.3833 200.311 89.0765 176.797 89.909C172.09 90.0756 167.401 90.1824 163.104 90.182C158.876 90.1817 154.277 90.0781 149.66 89.9155C126.139 89.0874 108.314 69.3833 108.314 46.2153ZM120.481 46.2153C120.481 63.2001 133.48 77.1708 150.088 77.7556C154.614 77.9149 159.062 78.0146 163.105 78.015C167.214 78.0153 171.75 77.913 176.366 77.7496C192.974 77.1616 205.973 63.1953 205.973 46.2159C205.973 29.2587 193.009 15.306 176.432 14.7029C171.793 14.5341 167.233 14.4284 163.105 14.4288C159.043 14.4291 154.571 14.5323 150.022 14.6969C133.445 15.2967 120.482 29.2531 120.481 46.2153Z" fill="white"/>
<path d="M192.924 39.5824C192.924 47.7773 186.281 54.4206 178.086 54.4206C169.891 54.4206 163.247 47.7773 163.247 39.5824C163.247 31.3875 169.891 24.7441 178.086 24.7441C186.281 24.7441 192.924 31.3875 192.924 39.5824Z" fill="white"/>
<path d="M157.446 57.5736C157.446 62.9807 153.063 67.364 147.656 67.364C142.249 67.364 137.865 62.9807 137.865 57.5736C137.865 52.1665 142.249 47.7832 147.656 47.7832C153.063 47.7832 157.446 52.1665 157.446 57.5736Z" fill="white"/>
<path d="M94.9337 78.8964C97.5169 80.2803 98.8086 82.1255 98.8086 84.4319C98.8086 87.9378 96.6405 89.6907 92.3044 89.6907H86.5613C85.6387 89.6907 84.7392 89.46 83.8627 88.9987L15.7762 53.0872V83.9476C15.7762 87.7763 13.8618 89.6907 10.0331 89.6907H5.67388C1.89129 89.6907 0 87.7763 0 83.9476V6.65826C0 2.87567 1.89129 0.984375 5.67388 0.984375H10.0331C13.8618 0.984375 15.7762 2.87567 15.7762 6.65826V36.4807L81.3718 1.60712C82.6172 1.19196 83.5168 0.984375 84.0703 0.984375H90.1593C94.4955 0.984375 96.6636 2.73728 96.6636 6.24309C96.6636 8.54955 95.3719 10.3716 92.7887 11.7094L30.0301 44.5764L94.9337 78.8964Z" fill="white"/>
</svg>
