<svg width="644" height="210" viewBox="0 0 644 210" fill="none" xmlns="http://www.w3.org/2000/svg">
<path d="M363.869 184.284C363.869 194.535 358.234 201.492 346.962 205.157C343.53 206.27 339.495 207.081 334.856 207.592C332.305 207.87 330.079 208.009 328.177 208.009H259.158C255.355 208.009 253.453 206.084 253.453 202.234V124.519C253.453 120.715 255.355 118.813 259.158 118.813H326.159C333.72 118.813 339.471 119.254 343.414 120.135C349.026 121.388 353.711 123.777 357.468 127.302C361.736 131.244 363.869 135.906 363.869 141.286V148.174C363.869 153.555 361.968 158.031 358.164 161.602C357.607 162.113 357.329 162.692 357.329 163.342C357.329 163.759 357.468 164.223 357.747 164.733L358.164 165.359C361.968 168.885 363.869 173.337 363.869 178.718V184.284ZM348.006 148.87L347.589 141.356C347.264 135.187 340.237 132.102 326.507 132.102H270.082V157.15H327.133C337.199 157.15 343.716 155.526 346.684 152.279C347.612 151.259 348.052 150.122 348.006 148.87ZM347.589 178.996C347.681 173.337 340.956 170.508 327.412 170.508H269.734V194.651H326.299C338.868 194.651 345.919 191.844 347.449 186.232L347.589 178.996Z" fill="white"/>
<path d="M231.437 201.902H122.924C122.601 201.902 122.413 201.536 122.601 201.273L177.025 125.347C177.152 125.17 177.415 125.17 177.542 125.347L231.761 201.274C231.948 201.537 231.76 201.902 231.437 201.902Z" stroke="white" stroke-width="14.3018"/>
<path d="M101.232 202.235C101.232 206.085 99.3072 208.01 95.4574 208.01H44.3891C34.1847 208.01 27.3663 207.662 23.9339 206.966C7.97798 203.719 0 196.251 0 184.563V124.519C0 120.716 1.90173 118.814 5.70518 118.814H10.5059C14.3557 118.814 16.2806 120.716 16.2806 124.519V184.563C16.2806 189.34 20.0609 192.425 27.6214 193.816C30.6364 194.373 36.1792 194.651 44.2499 194.651H95.4574C99.3072 194.651 101.232 196.576 101.232 200.426V202.235Z" fill="white"/>
<path d="M95.4574 78.7584C98.0549 80.1499 99.3536 82.0052 99.3536 84.3244C99.3536 87.8495 97.1736 89.6121 92.8135 89.6121H87.0388C86.1111 89.6121 85.2066 89.3802 84.3253 88.9164L15.8632 52.8067V83.8374C15.8632 87.6872 13.9383 89.6121 10.0884 89.6121H5.70518C1.90173 89.6121 0 87.6872 0 83.8374V6.12168C0 2.31823 1.90173 0.416504 5.70518 0.416504H10.0884C13.9383 0.416504 15.8632 2.31823 15.8632 6.12168V36.1087L81.8206 1.04268C83.073 0.62523 83.9775 0.416504 84.5341 0.416504H90.6567C95.0168 0.416504 97.1968 2.17908 97.1968 5.70423C97.1968 8.02341 95.8981 9.85556 93.3006 11.2007L30.1957 44.249L95.4574 78.7584Z" fill="white"/>
<path d="M115 45.8551C115 22.385 133.034 2.40384 156.868 1.54149C161.578 1.37108 166.272 1.26207 170.587 1.26172C174.971 1.26136 179.757 1.37293 184.558 1.54757C208.385 2.41449 226.425 22.3857 226.425 45.8556C226.425 69.3603 208.335 89.3401 184.479 90.1847C179.704 90.3538 174.947 90.4621 170.587 90.4617C166.297 90.4614 161.631 90.3563 156.947 90.1913C133.084 89.3512 115 69.3603 115 45.8551ZM127.344 45.8551C127.344 63.0871 140.532 77.2611 157.381 77.8544C161.973 78.0161 166.487 78.1173 170.588 78.1176C174.757 78.1179 179.359 78.0141 184.042 77.8483C200.892 77.2518 214.08 63.0822 214.08 45.8556C214.08 28.6517 200.928 14.4958 184.109 13.884C179.402 13.7128 174.776 13.6055 170.588 13.6059C166.467 13.6062 161.93 13.7109 157.314 13.8779C140.496 14.4865 127.344 28.646 127.344 45.8551Z" fill="white"/>
<path d="M200.841 39.1258C200.841 47.44 194.101 54.18 185.787 54.18C177.472 54.18 170.732 47.44 170.732 39.1258C170.732 30.8115 177.472 24.0715 185.787 24.0715C194.101 24.0715 200.841 30.8115 200.841 39.1258Z" fill="white"/>
<path d="M164.846 57.3785C164.846 62.8642 160.399 67.3113 154.913 67.3113C149.428 67.3113 144.98 62.8642 144.98 57.3785C144.98 51.8927 149.428 47.4456 154.913 47.4456C160.399 47.4456 164.846 51.8927 164.846 57.3785Z" fill="white"/>
<path d="M344.828 67.557C344.828 77.4831 340.282 83.884 331.191 86.7598C325.161 88.6615 316.696 89.6124 305.796 89.6124H249.51C245.706 89.6124 243.804 87.6874 243.804 83.8376V82.0286C243.804 78.1788 245.706 76.2539 249.51 76.2539H305.796C320.964 76.2539 328.547 73.4477 328.547 67.8353V60.1124C328.547 54.1289 321.033 51.1372 306.005 51.1372H284.506C257.232 51.1372 243.596 44.0405 243.596 29.8471V23.1679C243.596 13.7056 248.095 7.23513 257.093 3.75636C262.845 1.52995 271.449 0.416748 282.906 0.416748H291.185C295.035 0.416748 296.96 2.31847 296.96 6.12193V7.93089C296.96 11.7807 295.035 13.7056 291.185 13.7056H282.697C267.483 13.7056 259.876 16.8133 259.876 23.0287V29.2209C259.876 33.1172 263.239 35.6451 269.965 36.8047C272.655 37.2685 277.409 37.5004 284.228 37.5004H306.005C315.699 37.5004 323.909 38.8455 330.634 41.5358C340.097 45.3392 344.828 51.3459 344.828 59.5558V67.557Z" fill="white"/>
<path d="M515.748 83.2817C515.748 87.1316 513.846 89.0565 510.043 89.0565H505.172C501.369 89.0565 499.467 87.1316 499.467 83.2817V25.6037L451.53 84.7428C448.979 87.8969 445.546 89.4739 441.233 89.4739C436.873 89.4739 433.394 87.8969 430.796 84.7428L381.954 25.3254V83.2817C381.954 87.1316 380.03 89.0565 376.18 89.0565H371.379C367.576 89.0565 365.674 87.1316 365.674 83.2817V8.41862C365.674 5.96029 366.671 3.91941 368.666 2.29599C370.521 0.76533 372.724 0 375.275 0C378.754 0 381.746 1.48427 384.25 4.45282L441.372 72.0105L497.171 4.31367C499.444 1.57704 502.645 0.208726 506.773 0.208726C512.756 0.208726 515.748 3.17728 515.748 9.11437V83.2817Z" fill="white"/>
<path d="M532 44.8551C532 21.385 550.034 1.40384 573.868 0.541489C578.578 0.371083 583.272 0.26207 587.587 0.26172C591.971 0.261364 596.757 0.372929 601.558 0.547571C625.385 1.41449 643.425 21.3857 643.425 44.8556C643.425 68.3603 625.335 88.3401 601.479 89.1847C596.704 89.3538 591.947 89.4621 587.587 89.4617C583.297 89.4614 578.631 89.3563 573.947 89.1913C550.084 88.3512 532 68.3603 532 44.8551ZM544.344 44.8551C544.344 62.0871 557.532 76.2611 574.381 76.8544C578.973 77.0161 583.487 77.1173 587.588 77.1176C591.757 77.1179 596.359 77.0141 601.042 76.8483C617.892 76.2518 631.08 62.0822 631.08 44.8556C631.08 27.6517 617.928 13.4958 601.109 12.884C596.402 12.7128 591.776 12.6055 587.588 12.6059C583.467 12.6062 578.93 12.7109 574.314 12.8779C557.496 13.4865 544.344 27.646 544.344 44.8551Z" fill="white"/>
<path d="M617.841 38.1258C617.841 46.44 611.101 53.18 602.787 53.18C594.472 53.18 587.732 46.44 587.732 38.1258C587.732 29.8115 594.472 23.0715 602.787 23.0715C611.101 23.0715 617.841 29.8115 617.841 38.1258Z" fill="white"/>
<path d="M581.846 56.3785C581.846 61.8642 577.399 66.3113 571.913 66.3113C566.428 66.3113 561.98 61.8642 561.98 56.3785C561.98 50.8927 566.428 46.4456 571.913 46.4456C577.399 46.4456 581.846 50.8927 581.846 56.3785Z" fill="white"/>
</svg>
