<svg width="278" height="176" viewBox="0 0 278 176" fill="none" xmlns="http://www.w3.org/2000/svg">
<path d="M241.876 173.707C243.47 175.793 246.621 175.79 248.212 173.702L248.288 173.599L277.242 133.052C279.148 130.384 277.241 126.678 273.962 126.678H216.012C212.73 126.678 210.824 130.39 212.736 133.057L241.8 173.605L241.876 173.707ZM223.035 134.316H266.955L245.036 165.01L223.035 134.316Z" fill="white"/>
<path d="M201.007 162.147C201.007 167.621 197.997 171.337 191.978 173.294C190.145 173.888 187.99 174.322 185.513 174.594C184.151 174.743 182.962 174.817 181.946 174.817H145.088C143.057 174.817 142.041 173.789 142.041 171.733V130.23C142.041 128.199 143.057 127.184 145.088 127.184H180.869C184.906 127.184 187.978 127.419 190.083 127.89C193.081 128.558 195.582 129.834 197.589 131.717C199.868 133.822 201.007 136.312 201.007 139.185V142.863C201.007 145.737 199.991 148.127 197.96 150.034C197.663 150.307 197.514 150.616 197.514 150.963C197.514 151.186 197.589 151.434 197.737 151.706L197.96 152.041C199.991 153.923 201.007 156.301 201.007 159.175V162.147ZM192.536 143.235L192.313 139.222C192.139 135.928 188.387 134.28 181.054 134.28H150.921V147.656H181.389C186.764 147.656 190.244 146.789 191.83 145.055C192.325 144.511 192.56 143.904 192.536 143.235ZM192.313 159.323C192.362 156.301 188.77 154.79 181.537 154.79H150.735V167.683H180.943C187.656 167.683 191.421 166.185 192.238 163.187L192.313 159.323Z" fill="white"/>
<path d="M94.8597 128.039C96.4539 125.953 99.6053 125.956 101.196 128.044L101.272 128.147L130.226 168.695C132.131 171.363 130.224 175.068 126.946 175.068H68.9961C65.7143 175.068 63.808 171.356 65.7198 168.689L94.7839 128.141L94.8597 128.039ZM76.0191 167.43H119.939L98.02 136.736L76.0191 167.43Z" fill="white"/>
<path d="M54.0618 171.733C54.0618 173.789 53.0338 174.817 50.9778 174.817H23.7056C18.2561 174.817 14.6148 174.631 12.7818 174.26C4.26076 172.526 0.000244141 168.538 0.000244141 162.296V130.23C0.000244141 128.199 1.01583 127.184 3.04701 127.184H5.61075C7.6667 127.184 8.69467 128.199 8.69467 130.23V162.296C8.69467 164.847 10.7135 166.494 14.751 167.237C16.3611 167.535 19.3212 167.683 23.6313 167.683H50.9778C53.0338 167.683 54.0618 168.711 54.0618 170.767V171.733Z" fill="white"/>
<path d="M50.9776 42.7279C52.3647 43.471 53.0583 44.4618 53.0583 45.7004C53.0583 47.5829 51.8941 48.5242 49.5657 48.5242H46.4817C45.9863 48.5242 45.5033 48.4003 45.0327 48.1526L8.47149 28.8688V45.4403C8.47149 47.4962 7.44352 48.5242 5.38757 48.5242H3.04677C1.01559 48.5242 0 47.4962 0 45.4403V3.93739C0 1.90621 1.01559 0.890625 3.04677 0.890625H5.38757C7.44352 0.890625 8.47149 1.90621 8.47149 3.93739V19.9515L43.6951 1.22503C44.3639 1.00209 44.8469 0.890625 45.1441 0.890625H48.4138C50.7423 0.890625 51.9065 1.8319 51.9065 3.71446C51.9065 4.95298 51.2129 5.93141 49.8258 6.64976L16.1256 24.2987L50.9776 42.7279Z" fill="white"/>
<path d="M65.3545 24.105C65.3545 11.4182 75.1027 0.617376 87.9863 0.15123C90.5324 0.0591168 93.0698 0.000189752 95.4019 4.57011e-07C97.772 -0.000191522 100.359 0.060115 102.954 0.154518C115.834 0.623132 125.585 11.4186 125.585 24.1053C125.585 36.8107 115.807 47.6108 102.911 48.0674C100.33 48.1588 97.7587 48.2173 95.4019 48.2171C93.0832 48.2169 90.5611 48.1601 88.0291 48.071C75.13 47.6168 65.3545 36.8107 65.3545 24.105ZM72.0271 24.105C72.0271 33.4197 79.1558 41.0815 88.2637 41.4022C90.7457 41.4896 93.1856 41.5443 95.4025 41.5445C97.656 41.5447 100.144 41.4885 102.675 41.3989C111.783 41.0765 118.912 33.4171 118.912 24.1053C118.912 14.8057 111.803 7.1537 102.711 6.82296C100.167 6.73042 97.6664 6.67245 95.4025 6.67263C93.1751 6.67281 90.7223 6.72942 88.2275 6.81967C79.1364 7.14865 72.0271 14.8026 72.0271 24.105Z" fill="white"/>
<path d="M111.756 20.4676C111.756 24.9619 108.112 28.6052 103.618 28.6052C99.1238 28.6052 95.4805 24.9619 95.4805 20.4676C95.4805 15.9734 99.1238 12.3301 103.618 12.3301C108.112 12.3301 111.756 15.9734 111.756 20.4676Z" fill="white"/>
<path d="M92.2995 30.3341C92.2995 33.2994 89.8956 35.7033 86.9303 35.7033C83.9649 35.7033 81.561 33.2994 81.561 30.3341C81.561 27.3687 83.9649 24.9648 86.9303 24.9648C89.8956 24.9648 92.2995 27.3687 92.2995 30.3341Z" fill="white"/>
<path d="M108.264 99.232C108.264 104.533 105.722 107.952 100.638 109.487C97.2665 110.503 92.5331 111.011 86.438 111.011H54.9641C52.8373 111.011 51.7739 109.983 51.7739 107.927V106.961C51.7739 104.905 52.8373 103.877 54.9641 103.877H86.438C94.9192 103.877 100.638 102.378 100.638 99.3806V95.2561C100.638 92.0606 94.9581 90.4628 86.5547 90.4628H74.5332C59.2825 90.4628 51.6572 86.6727 51.6572 79.0926V75.5255C51.6572 70.4721 54.1731 67.0164 59.2047 65.1586C62.4209 63.9695 67.2321 63.375 73.6384 63.375H78.268C80.4207 63.375 81.4971 64.3906 81.4971 66.4219V67.388C81.4971 69.4441 80.4207 70.4721 78.268 70.4721H73.5217C65.0145 70.4721 59.8543 72.1318 59.8543 75.4512V78.7582C59.8543 80.839 62.6413 82.1891 66.4021 82.8084C67.9064 83.0561 70.5649 83.1799 74.3776 83.1799H86.5547C91.9754 83.1799 96.5662 83.8983 100.327 85.3351C105.618 87.3664 108.264 90.5743 108.264 94.9589V99.232Z" fill="white"/>
<path d="M200.133 108.054C200.133 110.131 199.107 111.17 197.054 111.17H194.427C192.375 111.17 191.348 110.131 191.348 108.054V76.9336L165.484 108.842C164.107 110.544 162.255 111.395 159.928 111.395C157.575 111.395 155.699 110.544 154.297 108.842L127.944 76.7835V108.054C127.944 110.131 126.906 111.17 124.829 111.17H122.238C120.186 111.17 119.16 110.131 119.16 108.054V67.6614C119.16 66.335 119.698 65.2339 120.774 64.3579C121.775 63.5321 122.964 63.1191 124.341 63.1191C126.218 63.1191 127.832 63.92 129.183 65.5217L160.003 101.972L190.11 65.4466C191.336 63.97 193.063 63.2318 195.29 63.2318C198.518 63.2318 200.133 64.8334 200.133 68.0368V108.054Z" fill="white"/>
<path d="M210.737 86.5874C210.737 73.9006 220.486 63.0998 233.369 62.6337C235.915 62.5415 238.453 62.4826 240.785 62.4824C243.155 62.4822 245.742 62.5425 248.337 62.6369C261.217 63.1056 270.968 73.901 270.968 86.5877C270.968 99.2932 261.19 110.093 248.294 110.55C245.713 110.641 243.142 110.7 240.785 110.7C238.466 110.699 235.944 110.643 233.412 110.553C220.513 110.099 210.737 99.2931 210.737 86.5874ZM217.41 86.5874C217.41 95.9022 224.539 103.564 233.646 103.885C236.129 103.972 238.568 104.027 240.785 104.027C243.039 104.027 245.527 103.971 248.058 103.881C257.166 103.559 264.295 95.8995 264.295 86.5877C264.295 77.2881 257.185 69.6361 248.094 69.3054C245.55 69.2128 243.049 69.1549 240.785 69.155C238.558 69.1552 236.105 69.2118 233.61 69.3021C224.519 69.6311 217.41 77.285 217.41 86.5874Z" fill="white"/>
<path d="M257.138 82.952C257.138 87.4463 253.495 91.0896 249.001 91.0896C244.507 91.0896 240.863 87.4463 240.863 82.952C240.863 78.4578 244.507 74.8145 249.001 74.8145C253.495 74.8145 257.138 78.4578 257.138 82.952Z" fill="white"/>
<path d="M237.682 92.8185C237.682 95.7838 235.278 98.1877 232.313 98.1877C229.348 98.1877 226.944 95.7838 226.944 92.8185C226.944 89.8531 229.348 87.4492 232.313 87.4492C235.278 87.4492 237.682 89.8531 237.682 92.8185Z" fill="white"/>
</svg>
