<svg width="50" height="50" viewBox="0 0 50 50" fill="none" xmlns="http://www.w3.org/2000/svg">
<path d="M17.833 13C18.7771 13 19.6943 13.1165 20.5723 13.3311C17.783 16.226 16.0674 20.1624 16.0674 24.5C16.0674 28.8373 17.7833 32.7731 20.5723 35.668C19.6942 35.8826 18.7772 36 17.833 36H11.7002C5.349 36 0.200195 30.8512 0.200195 24.5C0.200357 18.1489 5.3491 13 11.7002 13H17.833ZM24.9971 15.5078C26.402 16.6285 27.5383 18.071 28.2949 19.7236C26.3661 20.4802 25 22.3576 25 24.5547C25.0001 26.7352 26.3461 28.5997 28.252 29.3672C27.496 30.9807 26.3777 32.3905 25 33.4902C22.5039 31.4981 20.854 28.4908 20.6816 25.0918L20.667 24.5C20.667 20.8602 22.3578 17.6151 24.9971 15.5078Z" fill="white"/>
<path d="M38.2997 13C44.6509 13 49.7997 18.1488 49.7997 24.5C49.7997 30.8511 44.6509 36 38.2997 36H32.1669C25.8158 36 20.667 30.8511 20.6669 24.5C20.6669 18.1488 25.8157 13 32.1669 13H38.2997ZM41.5878 24.5039C39.6405 24.5039 38.0615 26.0829 38.0615 28.0303C38.0616 29.9775 39.6406 31.5557 41.5878 31.5557C43.5349 31.5555 45.113 29.9774 45.1132 28.0303C45.1132 26.083 43.535 24.5041 41.5878 24.5039ZM30.455 19.3662C27.5898 19.3664 25.2675 21.6894 25.2675 24.5547C25.2676 27.4199 27.5899 29.743 30.455 29.7432C33.3203 29.7432 35.6434 27.42 35.6435 24.5547C35.6435 21.6893 33.3204 19.3662 30.455 19.3662ZM40.4033 17.0488C39.1375 17.0488 38.1113 18.0751 38.1113 19.3408C38.1113 20.6066 39.1375 21.6328 40.4033 21.6328C41.669 21.6328 42.6953 20.6066 42.6953 19.3408C42.6952 18.0751 41.669 17.0488 40.4033 17.0488Z" fill="white"/>
</svg>
